# AST/ASF file generated using VICON BodyLanguage
# -----------------------------------------------
:version 1.10
:name VICON
:units
  mass 1.0
  length 0.45
  angle deg
:documentation
   .ast/.asf automatically generated from VICON data using
   VICON BodyBuilder and BodyLanguage model FoxedUp or BRILLIANT.MOD
:root
   order TX TY TZ RX RY RZ
   axis XYZ
   position 0 0 0  
   orientation 0 0 0 
:bonedata
  begin
     id 1 
     name lhipjoint
     direction 0.78388 -0.462562 0.414208 
     length 3.01181 
     axis 0 0 0  XYZ
  end
  begin
     id 2 
     name lfemur
     direction 0.34202 -0.939693 0  
     length 6.04673  
     axis 0 0 20  XYZ
    dof rx ry rz
    limits (-160.0 20.0)
           (-70.0 70.0)
           (-60.0 70.0)
  end
  begin
     id 3 
     name ltibia
     direction 0.34202 -0.939693 0   
     length 7.211   
     axis 0 0 20   XYZ
    dof rx
    limits (-10.0 170.0)
  end
  begin
     id 4 
     name lfoot
     direction 0.121887 -0.334882 0.934344   
     length 2.13567   
     axis -90 7.62852e-016 20   XYZ
    dof rx rz
    limits (-45.0 90.0)
           (-70.0 20.0)
  end
  begin
     id 5 
     name ltoes
     direction 1.53555e-011 -4.2179e-011 1   
     length 1.05957   
     axis -90 7.62852e-016 20   XYZ
    dof rx
    limits (-90.0 20.0)
  end
  begin
     id 6 
     name rhipjoint
     direction -0.769387 -0.475875 0.426129   
     length 2.92756  
     axis 0 0 0  XYZ 
  end
  begin
     id 7 
     name rfemur
     direction -0.34202 -0.939693 0   
     length 6.35468   
     axis 0 0 -20   XYZ
    dof rx ry rz
    limits (-160.0 20.0)
           (-70.0 70.0)
           (-70.0 60.0)
  end
  begin
     id 8 
     name rtibia
     direction -0.34202 -0.939693 0   
     length 7.37886   
     axis 0 0 -20   XYZ
    dof rx
    limits (-10.0 170.0)
 end
 begin
     id 9 
     name rfoot
     direction -0.101763 -0.279592 0.954711   
     length 2.21478  
     axis -90 -7.62852e-016 -20   XYZ
    dof rx rz
    limits (-45.0 90.0)
           (-20.0 70.0)
  end
  begin
     id 10 
     name rtoes
     direction -1.53494e-011 -4.21851e-011 1   
     length 1.10506   
     axis -90 -7.62852e-016 -20   XYZ
    dof rx
    limits (-90.0 20.0)
  end
  begin
     id 11 
     name lowerback
     direction 0.00747405 0.999267 0.0375481   
     length 2.13259   
     axis 0 0 0   XYZ
    dof rx ry rz
    limits (-20.0 45.0)
           (-30.0 30.0)
           (-30.0 30.0)
  end
  begin
     id 12 
     name upperback
     direction 0.00661626 0.996177 0.0871029   
     length 2.10528   
     axis 0 0 0   XYZ
    dof rx ry rz
    limits (-20.0 45.0)
           (-30.0 30.0)
           (-30.0 30.0)
  end
  begin
     id 13 
     name thorax
     direction 0.00320659 0.997679 0.0680167   
     length 2.11338   
     axis 0 0 0   XYZ
    dof rx ry rz
    limits (-20.0 45.0)
           (-30.0 30.0)
           (-30.0 30.0)
  end
  begin
     id 14 
     name lowerneck
     direction 0.0374841 0.973033 0.227602   
     length 1.42765   
     axis 0 0 0   XYZ
    dof rx ry rz
    limits (-20.0 45.0)
           (-30.0 30.0)
           (-30.0 30.0)
  end
  begin
     id 15 
     name upperneck
     direction 0.00481585 0.989155 -0.146795   
     length 1.47593   
     axis 0 0 0   XYZ
    dof rx ry rz
    limits (-20.0 45.0)
           (-30.0 30.0)
           (-30.0 30.0)
  end
  begin
     id 16
     name head
     direction -0.00292522 0.997206 -0.0746423  
     length 1.48116  
     axis 0 0 0   XYZ
    dof rx ry rz
    limits (-20.0 45.0)
           (-30.0 30.0)
           (-30.0 30.0)
  end
  begin
     id 17 
     name lclavicle
     direction 0.951444 0.305606 0.0368784  
     length 3.01855  
     axis 0 0 0   XYZ
    dof ry rz
    limits (-20.0 10.0)
           (0.0 20.0)
  end
  begin
     id 18 
     name lhumerus
     direction 1 -4.48977e-011 2.61664e-027   
     length 5.52731   
     axis 180 -30 -90   XYZ
    dof rx ry rz
    limits (-60.0 90.0)
           (-90.0 90.0)
           (-90.0 90.0)
  end
  begin
     id 19
     name lradius
     direction 1 -4.48944e-011 8.22157e-027   
     length 3.11059   
     axis 180 -30 -90   XYZ
    dof rx
    limits (-10.0 170.0)
  end
  begin
     id 20
     name lwrist
     direction 1 -4.48976e-011 1.5779e-026   
     length 1.5553   
     axis -1.15221e-014 90 90   XYZ
    dof ry
    limits (-180.0 0.0)
 end
  begin
     id 21 
     name lhand
     direction 1 -4.49025e-011 3.1558e-026   
     length 0.419626   
     axis -2.01367e-014 90 90   XYZ
    dof rx rz
    limits (-90.0 90.0)
           (-45.0 45.0)
  end
  begin
     id 22 
     name lfingers
     direction 1 -4.4904e-011 6.31161e-026   
     length 0.338313   
     axis -4.02734e-014 90 90   XYZ
    dof rx
    limits (0.0 90.0)
  end
  begin
     id 23
     name lthumb
     direction 0.707107 -6.35004e-011 0.707107   
     length 0.485752   
     axis -90 45 2.85299e-015   XYZ
    dof rx rz
    limits (-45.0 45.0)
           (-45.0 45.0)
  end
  begin
     id 24 
     name rclavicle
     direction -0.968876 0.223791 0.105816   
     length 3.04177  
     axis 0 0 0   XYZ 
    dof ry rz
    limits (-10.0 20.0)
           (-20.0 0.0)
  end
  begin
     id 25 
     name rhumerus
     direction -1 -4.48962e-011 -1.01384e-027  
     length 5.25396   
     axis 180 30 90   XYZ
    dof rx ry rz
    limits (-90.0 60.0)
           (-90.0 90.0)
           (-90.0 90.0)
  end
  begin
     id 26 
     name rradius
     direction -1 -4.48955e-011 8.88542e-027   
     length 3.10567   
     axis 180 30 90   XYZ
    dof rx
    limits (-10.0 170.0)
  end
  begin
     id 27 
     name rwrist
     direction -1 -4.48994e-011 1.5779e-026   
     length 1.55283   
     axis -1.15221e-014 -90 -90   XYZ
    dof ry
    limits (-180.0 0.0)
  end
  begin
     id 28
     name rhand
     direction -1 -4.48891e-011 3.1558e-026   
     length 0.498676   
     axis -2.01367e-014 -90 -90   XYZ
    dof rx rz
    limits (-90.0 90.0)
           (-45.0 45.0)
  end
  begin
     id 29
     name rfingers
     direction -1 -4.48972e-011 6.31161e-026   
     length 0.402045   
     axis -4.02734e-014 -90 -90   XYZ
    dof rx
    limits (0.0 90.0)
  end
  begin
     id 30
     name rthumb
     direction -0.707107 -6.34849e-011 0.707107   
     length 0.577259   
     axis -90 -45 -2.85299e-015   XYZ
    dof rx rz
    limits (-45.0 45.0)
           (-45.0 45.0)
  end
:hierarchy
  begin
    root lhipjoint rhipjoint lowerback
    lhipjoint lfemur
    lfemur ltibia
    ltibia lfoot
    lfoot ltoes
    rhipjoint rfemur
    rfemur rtibia
    rtibia rfoot
    rfoot rtoes
    lowerback upperback
    upperback thorax
    thorax lowerneck lclavicle rclavicle
    lowerneck upperneck
    upperneck head
    lclavicle lhumerus
    lhumerus lradius
    lradius lwrist
    lwrist lhand lthumb
    lhand lfingers
    rclavicle rhumerus
    rhumerus rradius
    rradius rwrist
    rwrist rhand rthumb
    rhand rfingers
  end

#!OML:ASF H:\Pregnant\Project 1\Capture day 1\Session 1\femalepreg.ASF
:FULLY-SPECIFIED
:DEGREES
114
root 9.12275 14.4855 28.0014 198.546 -88.4673 -179.831
lowerback -15.8046 0.403021 -1.1422
upperback -5.88821 0.424656 -1.16665
thorax 2.60799 0.0722514 -0.508565
lowerneck -26.0827 3.58039 4.0509
upperneck 27.79 2.33513 2.50758
head 13.8521 1.7393 0.757299
rclavicle -5.49764e-016 -2.50469e-014
rhumerus -40.4077 -27.2465 -16.2985
rradius 45.9339
rwrist 1.54711
rhand -26.8687 -18.1981
rfingers 7.12502
rthumb -0.293249 -48.1777
lclavicle -5.49764e-016 -2.50469e-014
lhumerus -36.2169 22.542 18.734
lradius 41.9244
lwrist 18.5737
lhand -31.9393 -7.4257
lfingers 7.12502
lthumb -5.19015 22.4907
rfemur -21.6892 31.3898 -10.8162
rtibia 22.1859
rfoot -22.6758 -35.5031
rtoes -20.4194
lfemur -10.3735 -6.09022 3.6226
ltibia 4.77083e-015
lfoot -6.05624 14.9442
ltoes -25.0078
115
root 9.13187 14.4863 28.0067 201.017 -88.4119 -182.291
lowerback -15.8028 0.370447 -1.20665
upperback -5.82823 0.395144 -1.14098
thorax 2.66943 0.0597292 -0.450398
lowerneck -26.0428 3.6455 4.11411
upperneck 27.6657 2.43962 2.42465
head 13.7936 1.7792 0.731077
rclavicle 9.16273e-017 -2.74323e-014
rhumerus -41.0019 -26.8899 -17.698
rradius 45.8842
rwrist 1.47932
rhand -26.3846 -17.8859
rfingers 7.12502
rthumb 0.174306 -47.8655
lclavicle 9.16273e-017 -2.74323e-014
lhumerus -36.8133 21.8183 20.1659
lradius 41.9058
lwrist 18.4786
lhand -32.1025 -7.74814
lfingers 7.12502
lthumb -5.34765 22.1644
rfemur -21.7746 31.225 -10.9388
rtibia 22.2155
rfoot -22.5498 -35.3634
rtoes -20.5706
lfemur -10.403 -6.06404 3.5213
ltibia 1.27222e-014
lfoot -6.04984 14.9299
ltoes -24.975
116
root 9.14036 14.4871 28.0119 203.461 -88.3524 -184.72
lowerback -15.8102 0.337337 -1.27668
upperback -5.7748 0.365214 -1.1145
thorax 2.72893 0.0467329 -0.388314
lowerneck -25.9819 3.71126 4.1791
upperneck 27.5443 2.54742 2.33421
head 13.7327 1.81947 0.701843
rclavicle -7.00405e-016 -4.37326e-015
rhumerus -41.5759 -26.5643 -19.1224
rradius 45.7111
rwrist 1.39336
rhand -25.8945 -17.5552
rfingers 7.12502
rthumb 0.647687 -47.534
lclavicle -7.00405e-016 -4.37326e-015
lhumerus -37.3669 21.034 21.6843
lradius 41.7713
lwrist 18.4149
lhand -32.2501 -8.0359
lfingers 7.12502
lthumb -5.49019 21.873
rfemur -21.8684 31.0587 -11.0657
rtibia 22.2584
rfoot -22.4303 -35.2257
rtoes -20.7289
lfemur -10.4341 -6.03678 3.41566
ltibia 1.11319e-014
lfoot -6.04498 14.9152
ltoes -24.937
117
root 9.14766 14.4878 28.0155 205.714 -88.2746 -186.965
lowerback -15.825 0.306009 -1.3644
upperback -5.72465 0.340085 -1.09043
thorax 2.78878 0.0359843 -0.317942
lowerneck -25.9039 3.77555 4.24317
upperneck 27.4338 2.64769 2.26012
head 13.673 1.85862 0.67766
rclavicle 3.81107e-015 -6.75868e-015
rhumerus -42.131 -26.3205 -20.5517
rradius 45.3947
rwrist 1.35208
rhand -25.3748 -17.1819
rfingers 7.12502
rthumb 1.14956 -47.1586
lclavicle 3.81107e-015 -6.75868e-015
lhumerus -37.8826 20.2497 23.2566
lradius 41.5208
lwrist 18.3476
lhand -32.3469 -8.32013
lfingers 7.12502
lthumb -5.58366 21.5863
rfemur -21.9697 30.9366 -11.1961
rtibia 22.3182
rfoot -22.3348 -35.112
rtoes -20.8739
lfemur -10.4428 -5.99793 3.30601
ltibia 1.90833e-014
lfoot -6.05359 14.8968
ltoes -24.8967
118
root 9.15459 14.4886 28.0193 207.978 -88.1994 -189.214
lowerback -15.848 0.270362 -1.45275
upperback -5.68153 0.308855 -1.06628
thorax 2.84567 0.0218881 -0.248246
lowerneck -25.814 3.84195 4.30767
upperneck 27.3353 2.74818 2.19284
head 13.6164 1.89882 0.656101
rclavicle -7.85044e-016 -5.1684e-015
rhumerus -42.6338 -26.1222 -21.9895
rradius 44.9292
rwrist 1.34513
rhand -24.8174 -16.776
rfingers 7.12502
rthumb 1.68788 -46.7491
lclavicle -7.85044e-016 -5.1684e-015
lhumerus -38.3732 19.5136 24.8661
lradius 41.1555
lwrist 18.2605
lhand -32.35 -8.60198
lfingers 7.12502
lthumb -5.58663 21.3044
rfemur -22.0799 30.7966 -11.3292
rtibia 22.3944
rfoot -22.2342 -34.9966
rtoes -21.0562
lfemur -10.4627 -5.96383 3.19225
ltibia -3.65764e-014
lfoot -6.06038 14.8799
ltoes -24.8543
119
root 9.1607 14.4892 28.0217 209.871 -88.1138 -191.101
lowerback -15.8704 0.233465 -1.55802
upperback -5.64007 0.278237 -1.03702
thorax 2.90047 0.00813719 -0.163544
lowerneck -25.7173 3.91101 4.38217
upperneck 27.2516 2.84783 2.12501
head 13.5652 1.93961 0.632596
rclavicle -2.0422e-015 1.27222e-014
rhumerus -43.1023 -26.0055 -23.411
rradius 44.3175
rwrist 1.42797
rhand -24.2096 -16.3317
rfingers 7.12502
rthumb 2.2749 -46.2993
lclavicle -2.0422e-015 1.27222e-014
lhumerus -38.829 18.8366 26.5002
lradius 40.6699
lwrist 18.1611
lhand -32.2441 -8.88705
lfingers 7.12502
lthumb -5.48442 21.022
rfemur -22.193 30.6967 -11.4552
rtibia 22.486
rfoot -22.1516 -34.9065
rtoes -21.2318
lfemur -10.4632 -5.92292 3.0831
ltibia -3.97569e-014
lfoot -6.07367 14.8629
ltoes -24.8144
